<?xml version="1.0" encoding="UTF-8"?>
<svg width="38px" height="35px" viewBox="0 0 38 35" version="1.1" xmlns="http://www.w3.org/2000/svg" xmlns:xlink="http://www.w3.org/1999/xlink">
    <!-- Generator: Sketch 45.2 (43514) - http://www.bohemiancoding.com/sketch -->
    <title>Rising Stars</title>
    <desc>Created with Sketch.</desc>
    <defs></defs>
    <g id="Page-1" stroke="none" stroke-width="1" fill="none" fill-rule="evenodd">
        <g id="Strategies" transform="translate(-270.000000, -355.000000)" fill="#010040">
            <g id="Your-Exposure" transform="translate(230.000000, 64.000000)">
                <g id="Rising-Stars" transform="translate(40.000000, 291.000000)">
                    <path d="M26.80624,21.238338 C26.5470064,21.4927148 26.4261926,21.8624414 26.4856888,22.2254899 L28.1036224,31.8474897 L19.2641804,27.3549162 C18.9472718,27.1909979 18.5125849,27.1897837 18.20539,27.3488451 L18.2005332,27.3512735 L9.3519846,31.8474897 L10.9717395,22.2218473 C11.0306286,21.860013 10.9067793,21.4896793 10.6414746,21.2286243 L3.56870679,14.3950556 L13.4299058,12.9216129 C13.7765625,12.8633309 14.0867929,12.6380951 14.2488898,12.3199723 L18.7281071,3.58859491 L23.205503,12.3163297 C23.3688141,12.6362738 23.6869369,12.863938 24.0572707,12.9264698 L33.8875073,14.3950556 L26.80624,21.238338 Z M36.5101989,12.4936042 L24.9746056,10.7761055 L19.7401503,0.568249845 C19.5561976,0.220378946 19.1670436,0 18.7281071,0 C18.2897776,0 17.8981952,0.224628678 17.7069572,0.586462982 L12.4822156,10.7761055 L0.97151359,12.4899616 C0.546540415,12.5470294 0.201097934,12.8487604 0.0614638911,13.2791975 C-0.0763488385,13.7029565 0.0213949918,14.1406788 0.316447796,14.4211611 L8.60099629,22.4355481 L6.72200775,33.701587 C6.66069019,34.0883126 6.83675051,34.4920371 7.1834072,34.7506636 C7.54099177,35.0165754 7.98721361,35.0645367 8.37697472,34.8811911 L18.7281071,29.6279156 L29.1593772,34.9170103 C29.4908563,35.048752 29.9322213,35.0305388 30.2430588,34.8125883 C30.5532892,34.595852 30.7420987,34.2103406 30.7402774,33.8011521 L28.8558249,22.4355481 L37.1306597,14.4302677 C37.4323907,14.1425002 37.5325629,13.7029565 37.3953573,13.2798046 C37.2551162,12.8487604 36.9163518,12.5476365 36.5101989,12.4936042 L36.5101989,12.4936042 Z"></path>
                </g>
            </g>
        </g>
    </g>
</svg>