<?xml version="1.0" encoding="UTF-8"?>
<svg width="29px" height="35px" viewBox="0 0 29 35" version="1.1" xmlns="http://www.w3.org/2000/svg" xmlns:xlink="http://www.w3.org/1999/xlink">
    <!-- Generator: Sketch 45.2 (43514) - http://www.bohemiancoding.com/sketch -->
    <title>Staples</title>
    <desc>Created with Sketch.</desc>
    <defs></defs>
    <g id="Page-1" stroke="none" stroke-width="1" fill="none" fill-rule="evenodd">
        <g id="Strategies" transform="translate(-270.000000, -243.000000)" fill="#010040">
            <g id="Your-Exposure" transform="translate(230.000000, 64.000000)">
                <g id="Staples" transform="translate(40.000000, 179.000000)">
                    <path d="M25.0857854,21.813287 C23.1317289,26.9263344 19.4996386,30.684623 14.5825155,32.6801694 L14.3658463,32.7683353 L14.1491771,32.6801694 C9.23205396,30.684623 5.60053986,26.9263344 3.64590707,21.813287 C1.93445089,17.3352648 1.69069804,12.0170732 2.97803578,7.22153835 L3.05121926,6.94782061 L14.3658463,2.23007927 L25.6804733,6.94782061 L25.754233,7.22153835 C27.0409945,12.0159207 26.7972416,17.3346885 25.0857854,21.813287 M27.6103274,5.84084845 C27.5169752,5.5406233 27.2945435,5.29571796 27.0006571,5.16951967 L14.7945747,0.0921996597 C14.6522415,0.0305411373 14.5041457,0 14.3577788,0 C14.3226277,0 14.2869003,0.00115249575 14.2517492,0.00518623086 C14.1439908,0.0190161798 14.0431475,0.0460998299 13.9624727,0.081827198 L1.71720544,5.17528215 C1.43311524,5.2974467 1.2135648,5.54235205 1.12021264,5.84488218 C-0.537652491,11.2765946 -0.348066941,17.3773309 1.64056447,22.5802729 C3.87582997,28.4291888 8.26511002,32.8178926 13.9999289,34.9361798 C14.232733,35.0214645 14.5012645,35.0214645 14.7357974,34.9350273 C20.467735,32.8167401 24.8564388,28.4286126 27.091128,22.5802729 C29.0797595,17.3773309 29.2687688,11.2754421 27.6103274,5.84084845"></path>
                </g>
            </g>
        </g>
    </g>
</svg>
